# xmcd
#
# Track frame offsets: 
#        150
#        30068
#        41132
#        63452
#        66647
#        76973
#        77372
#        87476
#        89468
#        98846
#        99902
#        100862
#        112721
#        120857
#        124346
#        135035
#        139360
#        144327
#        147032
#        148040
#        158246
#        158570
#        168755
#        171398
#        180740
#        181169
#        183179
#        194759
#        195200
#        203330
#        204869
#        215693
#        219212
#        226357
#        263450
#        291280
#        305633
#        342142
#        356919
#
# Disc length: 4766 seconds
#
# Revision: 0
# Processed by: cddbd v1.5.2PL0 Copyright (c) Steve Scherf et al.
# Submitted via: ExactAudioCopy v0.95b3
#
DISCID=1b129c27
DTITLE=The Beatles  - Turn Left At Greenland - Disc 4
DYEAR=1900
DGENRE=
TTITLE0=Train Ride To N.Y.
TTITLE1=Ed Rudy At Carnegie Hall
TTITLE2=WQAM Maimi Reports
TTITLE3=Ed Rudy With Ed Sullivan
TTITLE4=She Loves You
TTITLE5=Intro
TTITLE6=This Boy
TTITLE7=Intro
TTITLE8=All My Loving
TTITLE9=Intro
TTITLE10=Intro
TTITLE11=I Saw Her Standing There
TTITLE12=From Me To You
TTITLE13=Intro
TTITLE14=I Want Hold Your Hand
TTITLE15=Outro
TTITLE16=Ed Rudy In Miami
TTITLE17=Ed Sullivan Intro
TTITLE18=Intro
TTITLE19=She Loves You
TTITLE20=Intro
TTITLE21=This Boy
TTITLE22=Intro
TTITLE23=All My Loving
TTITLE24=Outro
TTITLE25=Intro
TTITLE26=I Saw Her Standing There
TTITLE27=Intro
TTITLE28=From Me To You
TTITLE29=Intro
TTITLE30=I Want To Hold Your Hand
TTITLE31=Outro
TTITLE32=Ed Sullivan Outro
TTITLE33="Swingin' Soiree"
TTITLE34=Lee Alan Interview
TTITLE35=A Farewell To Maimi
TTITLE36=Deauville Hotel, Miami
TTITLE37=Ed Rudy with Neil Aspinall
TTITLE38=Ringo At Kennedy Airport
EXTD=
EXTT0=
EXTT1=
EXTT2=
EXTT3=
EXTT4=
EXTT5=
EXTT6=
EXTT7=
EXTT8=
EXTT9=
EXTT10=
EXTT11=
EXTT12=
EXTT13=
EXTT14=
EXTT15=
EXTT16=
EXTT17=
EXTT18=
EXTT19=
EXTT20=
EXTT21=
EXTT22=
EXTT23=
EXTT24=
EXTT25=
EXTT26=
EXTT27=
EXTT28=
EXTT29=
EXTT30=
EXTT31=
EXTT32=
EXTT33=
EXTT34=
EXTT35=
EXTT36=
EXTT37=
EXTT38=
PLAYORDER=
